HIERARCHY
ROOT Hips
{
	OFFSET 0.000000 0.000000 0.000000
	CHANNELS 6 Xposition Yposition Zposition Yrotation Xrotation Zrotation
	JOINT Chest
	{
		OFFSET 0.000000 -0.009281 11.569106
		CHANNELS 3 Yrotation Xrotation Zrotation
		JOINT Chest2
		{
			OFFSET -0.000000 0.016865 9.269641
			CHANNELS 3 Yrotation Xrotation Zrotation
			JOINT Chest3
			{
				OFFSET -0.000000 0.000001 8.374491
				CHANNELS 3 Yrotation Xrotation Zrotation
				JOINT Chest4
				{
					OFFSET -0.000000 0.000001 8.374493
					CHANNELS 3 Yrotation Xrotation Zrotation
					JOINT Neck
					{
						OFFSET -0.000000 0.000002 12.152554
						CHANNELS 3 Yrotation Xrotation Zrotation
						JOINT Head
						{
							OFFSET -0.000000 0.040101 7.802319
							CHANNELS 3 Yrotation Xrotation Zrotation
							End Site
							{
								OFFSET -0.000000 0.020947 14.853096
							}
						}
					}
					JOINT RightCollar
					{
						OFFSET 2.894404 0.000001 6.791374
						CHANNELS 3 Yrotation Xrotation Zrotation
						JOINT RightShoulder
						{
							OFFSET 13.574684 0.000001 0.000000
							CHANNELS 3 Yrotation Xrotation Zrotation
							JOINT RightElbow
							{
								OFFSET 23.923903 0.000002 0.000000
								CHANNELS 3 Yrotation Xrotation Zrotation
								JOINT RightWrist
								{
									OFFSET 19.846718 0.012767 0.000000
									CHANNELS 3 Yrotation Xrotation Zrotation
									End Site
									{
										OFFSET 14.973145 0.000001 0.000000
									}
								}
							}
						}
					}
					JOINT LeftCollar
					{
						OFFSET -2.894404 0.000001 6.791374
						CHANNELS 3 Yrotation Xrotation Zrotation
						JOINT LeftShoulder
						{
							OFFSET -13.574684 -0.000001 0.000000
							CHANNELS 3 Yrotation Xrotation Zrotation
							JOINT LeftElbow
							{
								OFFSET -23.923903 -0.000002 0.000000
								CHANNELS 3 Yrotation Xrotation Zrotation
								JOINT LeftWrist
								{
									OFFSET -19.846718 0.012763 0.000000
									CHANNELS 3 Yrotation Xrotation Zrotation
									End Site
									{
										OFFSET -14.973145 -0.000001 0.000000
									}
								}
							}
						}
					}
				}
			}
		}
	}
	JOINT RightHip
	{
		OFFSET 9.469263 0.004643 0.045487
		CHANNELS 3 Yrotation Xrotation Zrotation
		JOINT RightKnee
		{
			OFFSET 0.000000 0.002661 -40.478676
			CHANNELS 3 Yrotation Xrotation Zrotation
			JOINT RightAnkle
			{
				OFFSET 0.000000 0.049106 -35.224068
				CHANNELS 3 Yrotation Xrotation Zrotation
				JOINT RightToe
				{
					OFFSET -0.000001 12.539529 -6.151390
					CHANNELS 3 Yrotation Xrotation Zrotation
					End Site
					{
						OFFSET -0.000001 5.044994 -1.291870
					}
				}
			}
		}
	}
	JOINT LeftHip
	{
		OFFSET -9.469263 0.004641 0.045487
		CHANNELS 3 Yrotation Xrotation Zrotation
		JOINT LeftKnee
		{
			OFFSET 0.000000 0.002661 -40.478676
			CHANNELS 3 Yrotation Xrotation Zrotation
			JOINT LeftAnkle
			{
				OFFSET 0.000000 0.049106 -35.224068
				CHANNELS 3 Yrotation Xrotation Zrotation
				JOINT LeftToe
				{
					OFFSET -0.000001 12.539529 -6.151390
					CHANNELS 3 Yrotation Xrotation Zrotation
					End Site
					{
						OFFSET -0.000001 5.044994 -1.291870
					}
				}
			}
		}
	}
}
MOTION
Frames: 15
Frame Time: 0.016667
10.697043 5.912172 82.964882 -9.277857 -4.277184 -109.922988 -1.145198 -5.471606 5.883394 -0.417505 -2.441842 2.590007 -0.417504 -2.441842 2.590008 -0.302734 -1.833191 1.940543 6.817485 -14.755481 -13.144768 7.783670 8.818063 -22.037054 7.350995 0.831049 -8.363176 60.281050 -12.624513 28.131300 9.516361 -5.910188 2.557034 20.032988 -1.018974 -10.052423 -7.443256 -2.079156 -18.475479 -72.668193 -19.092692 -22.261221 -2.439218 -20.387558 0.875200 -2.899589 -37.625818 6.235950 0.115762 -10.049128 -3.594758 1.062785 -7.591482 0.322071 -0.487133 6.845943 1.079419 0.041461 0.068710 0.014946 0.885904 -11.401862 -0.905731 0.060853 -4.874694 -0.982522 0.349892 6.466021 3.645792 0.042740 -0.238836 -0.014852 
10.791266 5.895968 82.965118 -9.287985 -4.326182 -109.880655 -1.157732 -5.399500 5.751317 -0.423123 -2.409110 2.530043 -0.423122 -2.409110 2.530042 -0.307322 -1.808621 1.895584 6.915360 -14.664169 -13.547346 7.805660 8.974764 -22.758656 7.132177 0.927774 -8.365433 58.424004 -11.960598 28.839958 9.113052 -7.201011 2.571374 21.059365 -1.598949 -11.012941 -7.439995 -2.087299 -18.408267 -71.784352 -20.231565 -23.392011 -3.602060 -20.895085 -0.592309 -8.611563 -38.206156 10.894675 0.160964 -10.161405 -3.616129 1.051563 -7.563481 0.300603 -0.465376 6.889052 1.074018 0.036343 0.071165 0.016159 0.929685 -11.538952 -0.913859 0.057572 -4.787147 -0.930723 0.332538 6.521900 3.578722 0.052918 -0.227988 -0.015092 
10.885700 5.877344 82.965996 -9.271334 -4.368665 -109.847856 -1.174593 -5.319572 5.603231 -0.431495 -2.372296 2.463614 -0.431496 -2.372297 2.463617 -0.314014 -1.780997 1.845774 7.000412 -14.582010 -13.926334 7.813160 9.113415 -23.441006 6.896328 0.760773 -8.347731 56.545750 -10.904501 29.847367 8.707073 -8.707006 2.729044 21.969172 -2.294033 -11.972645 -7.483930 -2.073216 -18.374524 -70.805873 -21.184083 -24.613555 -4.720634 -21.284495 -2.222618 -13.589751 -38.364158 14.974205 0.206532 -10.251211 -3.666078 1.040906 -7.526611 0.290803 -0.442833 6.928631 1.098328 0.031144 0.072537 0.016871 0.985027 -11.657009 -0.884577 0.050441 -4.684025 -0.919128 0.301578 6.568803 3.580927 0.070073 -0.218923 -0.013772 
10.980196 5.857799 82.968018 -9.236822 -4.405509 -109.829824 -1.192193 -5.222866 5.435902 -0.440234 -2.328604 2.388895 -0.440234 -2.328603 2.388890 -0.321029 -1.748206 1.789745 7.061470 -14.522336 -14.270235 7.791607 9.208785 -24.065941 6.689269 0.464508 -8.228684 54.629957 -9.536897 30.951661 8.307428 -10.076027 2.968538 22.691005 -2.861024 -12.721980 -7.518747 -2.123144 -18.325821 -69.781816 -21.964910 -25.941120 -5.742677 -21.578676 -4.060143 -17.752652 -38.137413 18.432299 0.242309 -10.325100 -3.745329 1.038915 -7.482372 0.308619 -0.419400 6.963007 1.153992 0.022703 0.073336 0.014407 1.040179 -11.767046 -0.844860 0.031911 -4.560949 -0.930672 0.277866 6.598878 3.540114 0.087245 -0.206786 -0.011503 
11.075624 5.844013 82.972160 -9.201628 -4.437310 -109.832167 -1.227144 -5.122956 5.261815 -0.457478 -2.284965 2.310740 -0.457479 -2.284966 2.310736 -0.334426 -1.715483 1.731111 7.108316 -14.480899 -14.576754 7.759772 9.270345 -24.625412 6.494580 0.449179 -8.108639 52.782452 -8.123017 31.850053 7.929021 -11.215085 3.283937 23.222922 -3.280468 -13.293436 -7.504567 -2.232269 -18.311022 -68.762834 -22.552941 -27.392837 -6.632615 -21.961637 -6.023669 -21.141394 -37.647661 21.196638 0.263843 -10.388032 -3.813758 1.040043 -7.449231 0.341750 -0.390539 6.997713 1.198541 0.011627 0.075819 0.010558 1.081746 -11.886518 -0.825845 0.017302 -4.415028 -0.911909 0.252953 6.606308 3.521972 0.100584 -0.188211 -0.009165 
11.170052 5.831711 82.978432 -9.164612 -4.472845 -109.864426 -1.275122 -5.001800 5.107848 -0.481860 -2.233205 2.241885 -0.481861 -2.233205 2.241882 -0.353159 -1.676700 1.679436 7.150179 -14.464070 -14.863863 7.729363 9.286589 -25.148915 6.315535 0.694902 -8.039497 51.069734 -6.606291 32.535067 7.592213 -12.204376 3.671298 23.536326 -3.691877 -13.755980 -7.415101 -2.424585 -18.341447 -67.649834 -22.996694 -29.014278 -7.493662 -22.338716 -8.091809 -23.985785 -37.129759 23.442977 0.287710 -10.448267 -3.830842 1.033544 -7.409393 0.356822 -0.354265 7.021595 1.241416 0.001804 0.080787 0.009150 1.113362 -12.022129 -0.828843 0.008798 -4.237522 -0.839815 0.227170 6.587142 3.497303 0.109552 -0.163855 -0.006875 
11.265167 5.818012 82.984703 -9.119237 -4.511548 -109.932953 -1.324425 -4.894750 4.964517 -0.507332 -2.186970 2.178512 -0.507332 -2.186970 2.178512 -0.372659 -1.642061 1.631871 7.186665 -14.434830 -15.119942 7.698637 9.326548 -25.617208 6.140242 0.915912 -7.953444 49.538290 -4.750909 33.296472 7.251065 -13.117288 4.124687 23.772135 -4.170697 -14.261549 -7.273164 -2.629201 -18.344655 -66.374535 -23.360939 -30.830279 -8.358272 -22.487903 -10.310257 -26.503764 -36.681890 25.457677 0.318979 -10.506470 -3.814052 1.015880 -7.352527 0.352669 -0.310382 7.036778 1.294383 -0.007283 0.082770 0.008997 1.150515 -12.169474 -0.849331 -0.014703 -4.032541 -0.720134 0.203554 6.553483 3.467922 0.118682 -0.139387 -0.005724 
11.361055 5.801147 82.989365 -9.061472 -4.548369 -110.035393 -1.358780 -4.840754 4.810794 -0.526528 -2.162994 2.111114 -0.526528 -2.162993 2.111113 -0.387379 -1.624089 1.581284 7.200153 -14.358461 -15.326258 7.636239 9.452903 -26.004601 5.894464 1.205234 -7.853658 48.229024 -2.650679 34.171699 6.837745 -14.066202 4.702370 23.990654 -4.757400 -14.850691 -7.185045 -2.677367 -18.297853 -65.099612 -23.592515 -32.668023 -9.158447 -22.416969 -12.683620 -28.778671 -36.229458 27.368360 0.348921 -10.559931 -3.781818 0.994355 -7.275200 0.350896 -0.263269 7.043357 1.362492 -0.015681 0.080129 0.008327 1.188423 -12.320761 -0.875981 -0.046364 -3.805835 -0.578879 0.179730 6.512693 3.481245 0.128435 -0.118139 -0.004418 
11.457830 5.780778 82.992897 -8.988967 -4.585445 -110.163083 -1.365578 -4.750246 4.649123 -0.533826 -2.122098 2.040941 -0.533826 -2.122098 2.040939 -0.393239 -1.593378 1.528678 7.171086 -14.303304 -15.500001 7.509632 9.535830 -26.346232 5.583638 1.514742 -7.799517 47.144366 -0.431767 35.066543 6.344853 -15.010997 5.431885 24.120951 -5.486857 -15.477043 -7.124500 -2.836903 -18.221910 -63.970664 -23.578001 -34.565672 -9.841392 -22.328768 -15.099692 -30.669134 -35.748390 28.993309 0.380127 -10.606869 -3.738806 0.974607 -7.181181 0.349961 -0.216285 7.041841 1.452056 -0.023800 0.075638 0.008224 1.231603 -12.466092 -0.905295 -0.086572 -3.572916 -0.445101 0.153071 6.472077 3.516166 0.143289 -0.099526 -0.004138 
11.553008 5.757206 82.996567 -8.902015 -4.616646 -110.314993 -1.355614 -4.632516 4.488662 -0.534374 -2.069526 1.971741 -0.534374 -2.069527 1.971745 -0.394062 -1.553889 1.476836 7.105439 -14.267506 -15.646075 7.328042 9.579147 -26.648936 5.221437 1.777244 -7.796462 46.222636 1.873371 36.092786 5.812143 -15.888572 6.280389 24.143850 -6.177285 -16.026252 -7.145208 -3.021100 -18.185128 -62.957139 -23.299228 -36.403467 -10.350490 -22.469092 -17.568819 -32.078509 -35.303148 29.990930 0.411146 -10.637489 -3.690028 0.951789 -7.082899 0.354494 -0.168067 7.035183 1.534839 -0.032976 0.071032 0.007461 1.269363 -12.597580 -0.926509 -0.122553 -3.342076 -0.314359 0.115926 6.429472 3.538131 0.160991 -0.079073 -0.003621 
11.645042 5.730409 83.000229 -8.798982 -4.643785 -110.488651 -1.341020 -4.488132 4.357828 -0.532541 -2.005538 1.916276 -0.532540 -2.005539 1.916275 -0.393078 -1.505843 1.435312 7.016101 -14.246221 -15.789190 7.105766 9.591611 -26.954297 4.845127 2.042766 -7.876974 45.499995 4.120180 37.221772 5.167428 -16.504679 7.220599 24.071924 -6.819443 -16.456576 -7.162654 -3.264486 -18.227707 -62.024579 -22.899729 -38.233295 -10.593454 -22.735909 -20.105251 -32.993417 -34.929570 30.359084 0.439101 -10.649131 -3.633741 0.931392 -6.983534 0.372153 -0.117047 7.025291 1.625026 -0.045021 0.065837 0.006862 1.301410 -12.707519 -0.926008 -0.147327 -3.125930 -0.154701 0.069097 6.393554 3.504983 0.173782 -0.059529 -0.003614 
11.731604 5.698923 83.003273 -8.681378 -4.681923 -110.676966 -1.307688 -4.338932 4.215695 -0.529713 -1.940211 1.857505 -0.529714 -1.940212 1.857502 -0.391352 -1.456786 1.391313 6.901672 -14.228573 -15.904676 6.847626 9.594975 -27.217351 4.438566 2.428934 -7.949210 44.831719 6.124082 38.354818 4.539360 -16.592852 8.239847 23.887101 -7.455627 -16.792358 -7.207204 -3.459328 -18.253447 -61.191965 -22.409717 -40.053025 -10.744271 -22.983682 -22.584857 -33.544838 -34.703068 30.459775 0.480048 -10.647417 -3.599516 0.920355 -6.883715 0.423760 -0.071344 7.020137 1.717791 -0.061288 0.051445 0.003447 1.347141 -12.802108 -0.893555 -0.165997 -2.916565 0.007130 0.018247 6.337422 3.495763 0.179823 -0.022618 -0.002839 
11.816271 5.667186 83.005119 -8.565329 -4.700014 -110.885778 -1.302316 -4.230363 4.097853 -0.530743 -1.891950 1.807368 -0.530742 -1.891949 1.807366 -0.392427 -1.420548 1.353762 6.788480 -14.175563 -16.014929 6.587816 9.663145 -27.473295 4.004033 2.958145 -8.040079 44.269495 7.876967 39.499711 3.904047 -16.141754 9.313485 23.591629 -8.074634 -17.137996 -7.262678 -3.542692 -18.325034 -60.402259 -21.851092 -41.865081 -10.904085 -23.123517 -25.036883 -33.933790 -34.635398 30.621924 0.495415 -10.640957 -3.556224 0.904515 -6.779808 0.489536 -0.014990 7.006073 1.826593 -0.078284 0.043144 0.001637 1.363040 -12.890514 -0.817248 -0.166781 -2.713609 0.133373 -0.033365 6.303927 3.512248 0.178992 -0.006724 -0.001394 
11.897249 5.629705 83.005913 -8.449467 -4.716684 -111.106107 -1.323339 -4.086369 4.007963 -0.543778 -1.828187 1.770151 -0.543778 -1.828188 1.770152 -0.402506 -1.372731 1.325877 6.686522 -14.144418 -16.140039 6.347068 9.690946 -27.750985 3.609132 3.337446 -8.172521 43.821449 9.531468 40.775109 3.282400 -15.345517 10.418760 23.220855 -8.774336 -17.593809 -7.207139 -3.747160 -18.409382 -59.788225 -21.184911 -43.667124 -10.935421 -23.342395 -27.529014 -34.285429 -34.650400 30.902580 0.523716 -10.636609 -3.486786 0.872813 -6.666671 0.554481 0.045278 6.987856 1.908415 -0.094625 0.034240 0.000342 1.374756 -12.972822 -0.723269 -0.158659 -2.522433 0.236379 -0.082579 6.273276 3.523832 0.171257 0.008492 0.000041 
11.972470 5.587936 83.006439 -8.340131 -4.722083 -111.331127 -1.363821 -3.970561 3.918133 -0.561490 -1.776973 1.733121 -0.561490 -1.776973 1.733123 -0.416047 -1.334336 1.298106 6.586001 -14.082756 -16.257903 6.106298 9.774923 -28.017550 3.220089 3.602144 -8.250058 43.495478 11.169875 42.205935 2.537356 -14.456357 11.583678 22.855237 -9.550338 -18.032046 -7.105761 -3.964791 -18.508194 -59.346236 -20.398372 -45.462637 -10.681524 -23.738954 -30.106764 -34.619654 -34.572905 31.192402 0.549553 -10.635977 -3.404030 0.830040 -6.535917 0.616673 0.107444 6.952144 1.973787 -0.108435 0.028431 0.000335 1.371814 -13.055844 -0.638229 -0.144234 -2.343161 0.337376 -0.129299 6.259050 3.548471 0.159997 0.014598 0.001245 
